<svg xmlns="http://www.w3.org/2000/svg" viewBox="0 0 200 200" fill="none"><ellipse cx="100" cy="174" rx="54" ry="7" fill="#1b1b2f" opacity=".13"/>
<path d="M62 44 L38 64 L52 88 L68 78 L68 156 L132 156 L132 78 L148 88 L162 64 L138 44 Q124 58 100 58 Q76 58 62 44Z" fill="#ffffff" stroke="#c9cfe4" stroke-width="2.5" stroke-linejoin="round"/>
<path d="M76 45 Q100 68 124 45" stroke="#aab2d0" stroke-width="5" stroke-linecap="round"/>
<path d="M68 78 L68 156 L84 156 L84 80Z" fill="#c9cfe4" opacity=".5"/>
<path d="M52 88 L68 78 M148 88 L132 78" stroke="#aab2d0" stroke-width="2" opacity=".5"/>
<path d="M92 112 q8 8 16 0" stroke="#aab2d0" stroke-width="2.5" stroke-linecap="round" opacity=".55"/></svg>
