<svg xmlns="http://www.w3.org/2000/svg" viewBox="0 0 200 200" fill="none"><ellipse cx="100" cy="174" rx="54" ry="7" fill="#1b1b2f" opacity=".13"/>
<rect x="44" y="64" width="112" height="98" rx="26" fill="#1f3d6e" stroke="#142a4e" stroke-width="2.5"/>
<g fill="#7fb2ff" opacity=".85"><circle cx="82" cy="84" r="3"/><circle cx="96" cy="84" r="3"/><circle cx="110" cy="84" r="3"/><circle cx="124" cy="84" r="3"/><circle cx="68" cy="98" r="3"/><circle cx="82" cy="98" r="3"/><circle cx="96" cy="98" r="3"/><circle cx="110" cy="98" r="3"/><circle cx="124" cy="98" r="3"/><circle cx="138" cy="98" r="3"/><circle cx="68" cy="112" r="3"/><circle cx="82" cy="112" r="3"/><circle cx="96" cy="112" r="3"/><circle cx="110" cy="112" r="3"/><circle cx="124" cy="112" r="3"/><circle cx="138" cy="112" r="3"/><circle cx="68" cy="126" r="3"/><circle cx="82" cy="126" r="3"/><circle cx="96" cy="126" r="3"/><circle cx="110" cy="126" r="3"/><circle cx="124" cy="126" r="3"/><circle cx="138" cy="126" r="3"/><circle cx="82" cy="140" r="3"/><circle cx="96" cy="140" r="3"/><circle cx="110" cy="140" r="3"/><circle cx="124" cy="140" r="3"/></g>
<rect x="80" y="148" width="40" height="8" rx="4" fill="#ff7a59"/>
<path d="M70 64 Q100 30 130 64" stroke="#142a4e" stroke-width="7" stroke-linecap="round"/>
<path d="M70 64 Q100 30 130 64" stroke="#ff7a59" stroke-width="3" stroke-linecap="round"/></svg>
