<svg xmlns="http://www.w3.org/2000/svg" viewBox="0 0 24 24" width="480" height="480" shape-rendering="crispEdges">
<title>#0007</title>
<rect x="9" y="5" width="7" height="1" fill="#7821ae"/>
<rect x="8" y="6" width="6" height="1" fill="#7821ae"/>
<rect x="14" y="6" width="1" height="1" fill="#a864d4"/>
<rect x="15" y="6" width="2" height="1" fill="#7821ae"/>
<rect x="7" y="7" width="8" height="1" fill="#7821ae"/>
<rect x="15" y="7" width="1" height="1" fill="#a864d4"/>
<rect x="16" y="7" width="1" height="1" fill="#7821ae"/>
<rect x="7" y="8" width="13" height="1" fill="#7821ae"/>
<rect x="7" y="9" width="14" height="1" fill="#7821ae"/>
<rect x="7" y="10" width="1" height="1" fill="#000000"/>
<rect x="8" y="10" width="8" height="1" fill="#ead9d9"/>
<rect x="16" y="10" width="1" height="1" fill="#000000"/>
<rect x="7" y="11" width="10" height="1" fill="#000000"/>
<rect x="6" y="12" width="1" height="1" fill="#000000"/>
<rect x="7" y="12" width="1" height="1" fill="#ead9d9"/>
<rect x="8" y="12" width="1" height="1" fill="#000000"/>
<rect x="9" y="12" width="2" height="1" fill="#a28d89"/>
<rect x="11" y="12" width="1" height="1" fill="#000000"/>
<rect x="12" y="12" width="1" height="1" fill="#ead9d9"/>
<rect x="13" y="12" width="1" height="1" fill="#000000"/>
<rect x="14" y="12" width="2" height="1" fill="#a28d89"/>
<rect x="16" y="12" width="1" height="1" fill="#000000"/>
<rect x="6" y="13" width="1" height="1" fill="#000000"/>
<rect x="7" y="13" width="1" height="1" fill="#ead9d9"/>
<rect x="8" y="13" width="1" height="1" fill="#000000"/>
<rect x="9" y="13" width="1" height="1" fill="#bd7829"/>
<rect x="10" y="13" width="1" height="1" fill="#c6b2b0"/>
<rect x="11" y="13" width="1" height="1" fill="#000000"/>
<rect x="12" y="13" width="1" height="1" fill="#ead9d9"/>
<rect x="13" y="13" width="1" height="1" fill="#000000"/>
<rect x="14" y="13" width="1" height="1" fill="#bd7829"/>
<rect x="15" y="13" width="1" height="1" fill="#c6b2b0"/>
<rect x="16" y="13" width="1" height="1" fill="#000000"/>
<rect x="5" y="14" width="1" height="1" fill="#000000"/>
<rect x="6" y="14" width="1" height="1" fill="#ffd926"/>
<rect x="7" y="14" width="1" height="1" fill="#000000"/>
<rect x="8" y="14" width="1" height="1" fill="#ead9d9"/>
<rect x="9" y="14" width="2" height="1" fill="#000000"/>
<rect x="11" y="14" width="3" height="1" fill="#ead9d9"/>
<rect x="14" y="14" width="3" height="1" fill="#000000"/>
<rect x="6" y="15" width="2" height="1" fill="#000000"/>
<rect x="8" y="15" width="8" height="1" fill="#ead9d9"/>
<rect x="16" y="15" width="1" height="1" fill="#000000"/>
<rect x="7" y="16" width="1" height="1" fill="#000000"/>
<rect x="8" y="16" width="4" height="1" fill="#ead9d9"/>
<rect x="12" y="16" width="1" height="1" fill="#000000"/>
<rect x="13" y="16" width="3" height="1" fill="#ead9d9"/>
<rect x="16" y="16" width="1" height="1" fill="#000000"/>
<rect x="7" y="17" width="1" height="1" fill="#000000"/>
<rect x="8" y="17" width="8" height="1" fill="#ead9d9"/>
<rect x="16" y="17" width="1" height="1" fill="#000000"/>
<rect x="7" y="18" width="1" height="1" fill="#000000"/>
<rect x="8" y="18" width="3" height="1" fill="#ead9d9"/>
<rect x="11" y="18" width="3" height="1" fill="#000000"/>
<rect x="14" y="18" width="2" height="1" fill="#ead9d9"/>
<rect x="16" y="18" width="1" height="1" fill="#000000"/>
<rect x="8" y="19" width="1" height="1" fill="#000000"/>
<rect x="9" y="19" width="6" height="1" fill="#ead9d9"/>
<rect x="15" y="19" width="1" height="1" fill="#000000"/>
<rect x="8" y="20" width="1" height="1" fill="#000000"/>
<rect x="9" y="20" width="1" height="1" fill="#ead9d9"/>
<rect x="10" y="20" width="1" height="1" fill="#000000"/>
<rect x="11" y="20" width="3" height="1" fill="#ead9d9"/>
<rect x="14" y="20" width="1" height="1" fill="#000000"/>
<rect x="8" y="21" width="1" height="1" fill="#000000"/>
<rect x="9" y="21" width="2" height="1" fill="#ead9d9"/>
<rect x="11" y="21" width="3" height="1" fill="#000000"/>
<rect x="8" y="22" width="1" height="1" fill="#000000"/>
<rect x="9" y="22" width="3" height="1" fill="#ead9d9"/>
<rect x="12" y="22" width="1" height="1" fill="#000000"/>
<rect x="8" y="23" width="1" height="1" fill="#000000"/>
<rect x="9" y="23" width="3" height="1" fill="#ead9d9"/>
<rect x="12" y="23" width="1" height="1" fill="#000000"/>
</svg>
