<svg xmlns="http://www.w3.org/2000/svg" viewBox="0 0 24 24" width="480" height="480" shape-rendering="crispEdges">
<title>#0021</title>
<rect x="11" y="1" width="1" height="1" fill="#000000"/>
<rect x="11" y="2" width="1" height="1" fill="#000000"/>
<rect x="12" y="2" width="1" height="1" fill="#4a4a4a"/>
<rect x="11" y="3" width="1" height="1" fill="#000000"/>
<rect x="12" y="3" width="1" height="1" fill="#4a4a4a"/>
<rect x="11" y="4" width="1" height="1" fill="#000000"/>
<rect x="12" y="4" width="1" height="1" fill="#4a4a4a"/>
<rect x="8" y="5" width="4" height="1" fill="#000000"/>
<rect x="12" y="5" width="1" height="1" fill="#4a4a4a"/>
<rect x="13" y="5" width="2" height="1" fill="#000000"/>
<rect x="7" y="6" width="1" height="1" fill="#000000"/>
<rect x="8" y="6" width="3" height="1" fill="#dbb180"/>
<rect x="11" y="6" width="1" height="1" fill="#000000"/>
<rect x="12" y="6" width="1" height="1" fill="#4a4a4a"/>
<rect x="13" y="6" width="2" height="1" fill="#dbb180"/>
<rect x="15" y="6" width="1" height="1" fill="#000000"/>
<rect x="6" y="7" width="1" height="1" fill="#000000"/>
<rect x="7" y="7" width="4" height="1" fill="#dbb180"/>
<rect x="11" y="7" width="1" height="1" fill="#000000"/>
<rect x="12" y="7" width="1" height="1" fill="#4a4a4a"/>
<rect x="13" y="7" width="3" height="1" fill="#dbb180"/>
<rect x="16" y="7" width="1" height="1" fill="#000000"/>
<rect x="6" y="8" width="1" height="1" fill="#000000"/>
<rect x="7" y="8" width="9" height="1" fill="#dbb180"/>
<rect x="16" y="8" width="1" height="1" fill="#000000"/>
<rect x="6" y="9" width="1" height="1" fill="#000000"/>
<rect x="7" y="9" width="9" height="1" fill="#dbb180"/>
<rect x="16" y="9" width="1" height="1" fill="#000000"/>
<rect x="6" y="10" width="11" height="1" fill="#000000"/>
<rect x="6" y="11" width="3" height="1" fill="#000000"/>
<rect x="9" y="11" width="2" height="1" fill="#9f6f32"/>
<rect x="11" y="11" width="3" height="1" fill="#000000"/>
<rect x="14" y="11" width="2" height="1" fill="#9f6f32"/>
<rect x="16" y="11" width="1" height="1" fill="#000000"/>
<rect x="5" y="12" width="4" height="1" fill="#000000"/>
<rect x="9" y="12" width="1" height="1" fill="#d7d7d6"/>
<rect x="10" y="12" width="1" height="1" fill="#cb9e64"/>
<rect x="11" y="12" width="3" height="1" fill="#000000"/>
<rect x="14" y="12" width="1" height="1" fill="#d7d7d6"/>
<rect x="15" y="12" width="1" height="1" fill="#cb9e64"/>
<rect x="16" y="12" width="1" height="1" fill="#000000"/>
<rect x="5" y="13" width="12" height="1" fill="#000000"/>
<rect x="5" y="14" width="2" height="1" fill="#000000"/>
<rect x="7" y="14" width="9" height="1" fill="#dbb180"/>
<rect x="16" y="14" width="1" height="1" fill="#000000"/>
<rect x="6" y="15" width="1" height="1" fill="#000000"/>
<rect x="7" y="15" width="5" height="1" fill="#dbb180"/>
<rect x="12" y="15" width="2" height="1" fill="#000000"/>
<rect x="14" y="15" width="2" height="1" fill="#dbb180"/>
<rect x="16" y="15" width="1" height="1" fill="#000000"/>
<rect x="6" y="16" width="1" height="1" fill="#000000"/>
<rect x="7" y="16" width="9" height="1" fill="#dbb180"/>
<rect x="16" y="16" width="1" height="1" fill="#000000"/>
<rect x="6" y="17" width="1" height="1" fill="#000000"/>
<rect x="7" y="17" width="7" height="1" fill="#dbb180"/>
<rect x="14" y="17" width="7" height="1" fill="#000000"/>
<rect x="6" y="18" width="1" height="1" fill="#000000"/>
<rect x="7" y="18" width="4" height="1" fill="#dbb180"/>
<rect x="11" y="18" width="3" height="1" fill="#000000"/>
<rect x="14" y="18" width="5" height="1" fill="#5c5853"/>
<rect x="19" y="18" width="1" height="1" fill="#1c3df5"/>
<rect x="20" y="18" width="1" height="1" fill="#000000"/>
<rect x="6" y="19" width="1" height="1" fill="#000000"/>
<rect x="7" y="19" width="7" height="1" fill="#dbb180"/>
<rect x="14" y="19" width="7" height="1" fill="#000000"/>
<rect x="6" y="20" width="1" height="1" fill="#000000"/>
<rect x="7" y="20" width="8" height="1" fill="#dbb180"/>
<rect x="15" y="20" width="1" height="1" fill="#000000"/>
<rect x="6" y="21" width="1" height="1" fill="#000000"/>
<rect x="7" y="21" width="3" height="1" fill="#dbb180"/>
<rect x="10" y="21" width="5" height="1" fill="#000000"/>
<rect x="6" y="22" width="1" height="1" fill="#000000"/>
<rect x="7" y="22" width="3" height="1" fill="#dbb180"/>
<rect x="10" y="22" width="1" height="1" fill="#000000"/>
<rect x="6" y="23" width="1" height="1" fill="#000000"/>
<rect x="7" y="23" width="3" height="1" fill="#dbb180"/>
<rect x="10" y="23" width="1" height="1" fill="#000000"/>
</svg>
