<svg xmlns="http://www.w3.org/2000/svg" viewBox="0 0 24 24" width="480" height="480" shape-rendering="crispEdges">
<title>#0030</title>
<rect x="8" y="4" width="7" height="1" fill="#7821ae"/>
<rect x="7" y="5" width="6" height="1" fill="#7821ae"/>
<rect x="13" y="5" width="1" height="1" fill="#a864d4"/>
<rect x="14" y="5" width="2" height="1" fill="#7821ae"/>
<rect x="6" y="6" width="8" height="1" fill="#7821ae"/>
<rect x="14" y="6" width="1" height="1" fill="#a864d4"/>
<rect x="15" y="6" width="1" height="1" fill="#7821ae"/>
<rect x="6" y="7" width="13" height="1" fill="#7821ae"/>
<rect x="6" y="8" width="14" height="1" fill="#7821ae"/>
<rect x="6" y="9" width="1" height="1" fill="#000000"/>
<rect x="7" y="9" width="9" height="1" fill="#7da269"/>
<rect x="16" y="9" width="1" height="1" fill="#000000"/>
<rect x="6" y="10" width="1" height="1" fill="#000000"/>
<rect x="7" y="10" width="9" height="1" fill="#7da269"/>
<rect x="16" y="10" width="1" height="1" fill="#000000"/>
<rect x="6" y="11" width="1" height="1" fill="#000000"/>
<rect x="7" y="11" width="2" height="1" fill="#7da269"/>
<rect x="9" y="11" width="2" height="1" fill="#657050"/>
<rect x="11" y="11" width="3" height="1" fill="#7da269"/>
<rect x="14" y="11" width="2" height="1" fill="#657050"/>
<rect x="16" y="11" width="1" height="1" fill="#000000"/>
<rect x="5" y="12" width="1" height="1" fill="#000000"/>
<rect x="6" y="12" width="3" height="1" fill="#7da269"/>
<rect x="9" y="12" width="1" height="1" fill="#ea311b"/>
<rect x="10" y="12" width="1" height="1" fill="#000000"/>
<rect x="11" y="12" width="3" height="1" fill="#7da269"/>
<rect x="14" y="12" width="1" height="1" fill="#ea311b"/>
<rect x="15" y="12" width="2" height="1" fill="#000000"/>
<rect x="5" y="13" width="1" height="1" fill="#000000"/>
<rect x="6" y="13" width="3" height="1" fill="#7da269"/>
<rect x="9" y="13" width="1" height="1" fill="#657050"/>
<rect x="10" y="13" width="4" height="1" fill="#7da269"/>
<rect x="14" y="13" width="1" height="1" fill="#657050"/>
<rect x="15" y="13" width="1" height="1" fill="#7da269"/>
<rect x="16" y="13" width="1" height="1" fill="#000000"/>
<rect x="5" y="14" width="1" height="1" fill="#ffd926"/>
<rect x="6" y="14" width="1" height="1" fill="#000000"/>
<rect x="7" y="14" width="9" height="1" fill="#7da269"/>
<rect x="16" y="14" width="1" height="1" fill="#000000"/>
<rect x="6" y="15" width="1" height="1" fill="#000000"/>
<rect x="7" y="15" width="1" height="1" fill="#657050"/>
<rect x="8" y="15" width="4" height="1" fill="#7da269"/>
<rect x="12" y="15" width="2" height="1" fill="#000000"/>
<rect x="14" y="15" width="2" height="1" fill="#7da269"/>
<rect x="16" y="15" width="1" height="1" fill="#000000"/>
<rect x="6" y="16" width="1" height="1" fill="#000000"/>
<rect x="7" y="16" width="1" height="1" fill="#7da269"/>
<rect x="8" y="16" width="1" height="1" fill="#657050"/>
<rect x="9" y="16" width="6" height="1" fill="#7da269"/>
<rect x="15" y="16" width="1" height="1" fill="#657050"/>
<rect x="16" y="16" width="1" height="1" fill="#000000"/>
<rect x="6" y="17" width="1" height="1" fill="#000000"/>
<rect x="7" y="17" width="1" height="1" fill="#7da269"/>
<rect x="8" y="17" width="1" height="1" fill="#657050"/>
<rect x="9" y="17" width="6" height="1" fill="#7da269"/>
<rect x="15" y="17" width="1" height="1" fill="#657050"/>
<rect x="16" y="17" width="1" height="1" fill="#000000"/>
<rect x="6" y="18" width="1" height="1" fill="#000000"/>
<rect x="7" y="18" width="2" height="1" fill="#7da269"/>
<rect x="9" y="18" width="1" height="1" fill="#657050"/>
<rect x="10" y="18" width="1" height="1" fill="#7da269"/>
<rect x="11" y="18" width="3" height="1" fill="#000000"/>
<rect x="14" y="18" width="1" height="1" fill="#7da269"/>
<rect x="15" y="18" width="1" height="1" fill="#657050"/>
<rect x="16" y="18" width="1" height="1" fill="#000000"/>
<rect x="6" y="19" width="1" height="1" fill="#000000"/>
<rect x="7" y="19" width="1" height="1" fill="#7da269"/>
<rect x="8" y="19" width="2" height="1" fill="#657050"/>
<rect x="10" y="19" width="1" height="1" fill="#7da269"/>
<rect x="11" y="19" width="1" height="1" fill="#657050"/>
<rect x="12" y="19" width="3" height="1" fill="#7da269"/>
<rect x="15" y="19" width="1" height="1" fill="#657050"/>
<rect x="16" y="19" width="1" height="1" fill="#000000"/>
<rect x="6" y="20" width="1" height="1" fill="#000000"/>
<rect x="7" y="20" width="2" height="1" fill="#7da269"/>
<rect x="9" y="20" width="6" height="1" fill="#657050"/>
<rect x="15" y="20" width="1" height="1" fill="#000000"/>
<rect x="6" y="21" width="1" height="1" fill="#000000"/>
<rect x="7" y="21" width="3" height="1" fill="#7da269"/>
<rect x="10" y="21" width="1" height="1" fill="#000000"/>
<rect x="11" y="21" width="3" height="1" fill="#657050"/>
<rect x="14" y="21" width="1" height="1" fill="#000000"/>
<rect x="6" y="22" width="1" height="1" fill="#000000"/>
<rect x="7" y="22" width="3" height="1" fill="#7da269"/>
<rect x="10" y="22" width="4" height="1" fill="#000000"/>
<rect x="6" y="23" width="1" height="1" fill="#000000"/>
<rect x="7" y="23" width="3" height="1" fill="#7da269"/>
<rect x="10" y="23" width="1" height="1" fill="#000000"/>
</svg>
