<svg xmlns="http://www.w3.org/2000/svg" viewBox="0 0 24 24" width="480" height="480" shape-rendering="crispEdges">
<title>#0089</title>
<rect x="9" y="5" width="5" height="1" fill="#fdf699"/>
<rect x="8" y="6" width="7" height="1" fill="#fdf699"/>
<rect x="7" y="7" width="9" height="1" fill="#fdf699"/>
<rect x="7" y="8" width="10" height="1" fill="#fdf699"/>
<rect x="6" y="9" width="11" height="1" fill="#fdf699"/>
<rect x="6" y="10" width="3" height="1" fill="#fdf699"/>
<rect x="9" y="10" width="4" height="1" fill="#dbb180"/>
<rect x="13" y="10" width="1" height="1" fill="#fdf699"/>
<rect x="14" y="10" width="2" height="1" fill="#dbb180"/>
<rect x="16" y="10" width="1" height="1" fill="#fdf699"/>
<rect x="6" y="11" width="1" height="1" fill="#fdf699"/>
<rect x="7" y="11" width="9" height="1" fill="#000000"/>
<rect x="16" y="11" width="1" height="1" fill="#fdf699"/>
<rect x="17" y="11" width="1" height="1" fill="#000000"/>
<rect x="6" y="12" width="1" height="1" fill="#fdf699"/>
<rect x="7" y="12" width="1" height="1" fill="#000000"/>
<rect x="8" y="12" width="1" height="1" fill="#97887d"/>
<rect x="9" y="12" width="2" height="1" fill="#9f6f32"/>
<rect x="11" y="12" width="2" height="1" fill="#000000"/>
<rect x="13" y="12" width="1" height="1" fill="#97887d"/>
<rect x="14" y="12" width="2" height="1" fill="#9f6f32"/>
<rect x="16" y="12" width="1" height="1" fill="#fdf699"/>
<rect x="17" y="12" width="1" height="1" fill="#000000"/>
<rect x="6" y="13" width="1" height="1" fill="#fdf699"/>
<rect x="7" y="13" width="1" height="1" fill="#dbb180"/>
<rect x="8" y="13" width="1" height="1" fill="#97887d"/>
<rect x="9" y="13" width="1" height="1" fill="#5e646a"/>
<rect x="10" y="13" width="1" height="1" fill="#cb9e64"/>
<rect x="11" y="13" width="2" height="1" fill="#dbb180"/>
<rect x="13" y="13" width="1" height="1" fill="#97887d"/>
<rect x="14" y="13" width="1" height="1" fill="#5e646a"/>
<rect x="15" y="13" width="1" height="1" fill="#cb9e64"/>
<rect x="16" y="13" width="1" height="1" fill="#fdf699"/>
<rect x="5" y="14" width="1" height="1" fill="#000000"/>
<rect x="6" y="14" width="1" height="1" fill="#dbb180"/>
<rect x="7" y="14" width="1" height="1" fill="#fdf699"/>
<rect x="8" y="14" width="3" height="1" fill="#97887d"/>
<rect x="11" y="14" width="2" height="1" fill="#dbb180"/>
<rect x="13" y="14" width="3" height="1" fill="#97887d"/>
<rect x="16" y="14" width="1" height="1" fill="#000000"/>
<rect x="6" y="15" width="2" height="1" fill="#000000"/>
<rect x="8" y="15" width="8" height="1" fill="#dbb180"/>
<rect x="16" y="15" width="1" height="1" fill="#000000"/>
<rect x="7" y="16" width="1" height="1" fill="#000000"/>
<rect x="8" y="16" width="4" height="1" fill="#dbb180"/>
<rect x="12" y="16" width="1" height="1" fill="#000000"/>
<rect x="13" y="16" width="3" height="1" fill="#dbb180"/>
<rect x="16" y="16" width="1" height="1" fill="#000000"/>
<rect x="7" y="17" width="1" height="1" fill="#000000"/>
<rect x="8" y="17" width="6" height="1" fill="#dbb180"/>
<rect x="14" y="17" width="7" height="1" fill="#000000"/>
<rect x="7" y="18" width="1" height="1" fill="#000000"/>
<rect x="8" y="18" width="3" height="1" fill="#dbb180"/>
<rect x="11" y="18" width="3" height="1" fill="#b53119"/>
<rect x="14" y="18" width="5" height="1" fill="#5c5853"/>
<rect x="19" y="18" width="1" height="1" fill="#1c3df5"/>
<rect x="20" y="18" width="1" height="1" fill="#000000"/>
<rect x="8" y="19" width="1" height="1" fill="#000000"/>
<rect x="9" y="19" width="5" height="1" fill="#dbb180"/>
<rect x="14" y="19" width="2" height="1" fill="#000000"/>
<rect x="17" y="19" width="4" height="1" fill="#000000"/>
<rect x="8" y="20" width="1" height="1" fill="#000000"/>
<rect x="9" y="20" width="1" height="1" fill="#dbb180"/>
<rect x="10" y="20" width="1" height="1" fill="#000000"/>
<rect x="11" y="20" width="3" height="1" fill="#dbb180"/>
<rect x="14" y="20" width="1" height="1" fill="#000000"/>
<rect x="8" y="21" width="1" height="1" fill="#000000"/>
<rect x="9" y="21" width="2" height="1" fill="#dbb180"/>
<rect x="11" y="21" width="3" height="1" fill="#000000"/>
<rect x="8" y="22" width="1" height="1" fill="#000000"/>
<rect x="9" y="22" width="3" height="1" fill="#f7cb48"/>
<rect x="12" y="22" width="1" height="1" fill="#000000"/>
<rect x="8" y="23" width="1" height="1" fill="#000000"/>
<rect x="9" y="23" width="3" height="1" fill="#dbb180"/>
<rect x="12" y="23" width="1" height="1" fill="#000000"/>
</svg>
