<svg xmlns="http://www.w3.org/2000/svg" viewBox="0 0 24 24" width="480" height="480" shape-rendering="crispEdges">
<title>#0052</title>
<rect x="8" y="4" width="7" height="1" fill="#000000"/>
<rect x="7" y="5" width="1" height="1" fill="#000000"/>
<rect x="8" y="5" width="1" height="1" fill="#38332e"/>
<rect x="9" y="5" width="6" height="1" fill="#544f4b"/>
<rect x="15" y="5" width="1" height="1" fill="#000000"/>
<rect x="6" y="6" width="1" height="1" fill="#000000"/>
<rect x="7" y="6" width="1" height="1" fill="#38332e"/>
<rect x="8" y="6" width="8" height="1" fill="#544f4b"/>
<rect x="16" y="6" width="1" height="1" fill="#000000"/>
<rect x="6" y="7" width="1" height="1" fill="#000000"/>
<rect x="7" y="7" width="3" height="1" fill="#544f4b"/>
<rect x="10" y="7" width="8" height="1" fill="#000000"/>
<rect x="6" y="8" width="1" height="1" fill="#000000"/>
<rect x="7" y="8" width="2" height="1" fill="#544f4b"/>
<rect x="9" y="8" width="1" height="1" fill="#000000"/>
<rect x="10" y="8" width="8" height="1" fill="#38332e"/>
<rect x="18" y="8" width="1" height="1" fill="#000000"/>
<rect x="6" y="9" width="13" height="1" fill="#000000"/>
<rect x="6" y="10" width="2" height="1" fill="#000000"/>
<rect x="8" y="10" width="3" height="1" fill="#63143c"/>
<rect x="11" y="10" width="3" height="1" fill="#000000"/>
<rect x="14" y="10" width="3" height="1" fill="#63143c"/>
<rect x="17" y="10" width="1" height="1" fill="#000000"/>
<rect x="6" y="11" width="2" height="1" fill="#000000"/>
<rect x="8" y="11" width="1" height="1" fill="#821b53"/>
<rect x="9" y="11" width="2" height="1" fill="#532701"/>
<rect x="11" y="11" width="1" height="1" fill="#000000"/>
<rect x="12" y="11" width="1" height="1" fill="#713f1d"/>
<rect x="13" y="11" width="1" height="1" fill="#000000"/>
<rect x="14" y="11" width="2" height="1" fill="#532701"/>
<rect x="16" y="11" width="1" height="1" fill="#821b53"/>
<rect x="17" y="11" width="1" height="1" fill="#000000"/>
<rect x="5" y="12" width="1" height="1" fill="#000000"/>
<rect x="6" y="12" width="1" height="1" fill="#713f1d"/>
<rect x="7" y="12" width="1" height="1" fill="#000000"/>
<rect x="8" y="12" width="2" height="1" fill="#a02d5a"/>
<rect x="10" y="12" width="1" height="1" fill="#6c380e"/>
<rect x="11" y="12" width="1" height="1" fill="#000000"/>
<rect x="12" y="12" width="1" height="1" fill="#713f1d"/>
<rect x="13" y="12" width="1" height="1" fill="#000000"/>
<rect x="14" y="12" width="1" height="1" fill="#a02d5a"/>
<rect x="15" y="12" width="1" height="1" fill="#6c380e"/>
<rect x="16" y="12" width="1" height="1" fill="#a02d5a"/>
<rect x="17" y="12" width="1" height="1" fill="#000000"/>
<rect x="5" y="13" width="1" height="1" fill="#000000"/>
<rect x="6" y="13" width="2" height="1" fill="#713f1d"/>
<rect x="8" y="13" width="3" height="1" fill="#000000"/>
<rect x="11" y="13" width="3" height="1" fill="#713f1d"/>
<rect x="14" y="13" width="3" height="1" fill="#000000"/>
<rect x="18" y="13" width="1" height="1" fill="#ffffff" fill-opacity="0.45"/>
<rect x="5" y="14" width="2" height="1" fill="#000000"/>
<rect x="7" y="14" width="9" height="1" fill="#713f1d"/>
<rect x="16" y="14" width="1" height="1" fill="#000000"/>
<rect x="18" y="14" width="1" height="1" fill="#ffffff" fill-opacity="0.45"/>
<rect x="6" y="15" width="2" height="1" fill="#000000"/>
<rect x="8" y="15" width="4" height="1" fill="#713f1d"/>
<rect x="12" y="15" width="2" height="1" fill="#000000"/>
<rect x="14" y="15" width="2" height="1" fill="#713f1d"/>
<rect x="16" y="15" width="1" height="1" fill="#000000"/>
<rect x="18" y="15" width="1" height="1" fill="#ffffff" fill-opacity="0.45"/>
<rect x="6" y="16" width="3" height="1" fill="#000000"/>
<rect x="9" y="16" width="6" height="1" fill="#713f1d"/>
<rect x="15" y="16" width="2" height="1" fill="#000000"/>
<rect x="18" y="16" width="1" height="1" fill="#ffffff" fill-opacity="0.45"/>
<rect x="6" y="17" width="14" height="1" fill="#000000"/>
<rect x="6" y="18" width="5" height="1" fill="#000000"/>
<rect x="11" y="18" width="1" height="1" fill="#532701"/>
<rect x="12" y="18" width="1" height="1" fill="#000000"/>
<rect x="13" y="18" width="5" height="1" fill="#e6e6e6"/>
<rect x="18" y="18" width="1" height="1" fill="#e25b26"/>
<rect x="19" y="18" width="1" height="1" fill="#000000"/>
<rect x="6" y="19" width="1" height="1" fill="#000000"/>
<rect x="7" y="19" width="1" height="1" fill="#713f1d"/>
<rect x="8" y="19" width="12" height="1" fill="#000000"/>
<rect x="6" y="20" width="1" height="1" fill="#000000"/>
<rect x="7" y="20" width="2" height="1" fill="#713f1d"/>
<rect x="9" y="20" width="7" height="1" fill="#000000"/>
<rect x="6" y="21" width="1" height="1" fill="#000000"/>
<rect x="7" y="21" width="3" height="1" fill="#713f1d"/>
<rect x="10" y="21" width="5" height="1" fill="#000000"/>
<rect x="6" y="22" width="1" height="1" fill="#000000"/>
<rect x="7" y="22" width="3" height="1" fill="#713f1d"/>
<rect x="10" y="22" width="1" height="1" fill="#000000"/>
<rect x="6" y="23" width="1" height="1" fill="#000000"/>
<rect x="7" y="23" width="3" height="1" fill="#713f1d"/>
<rect x="10" y="23" width="1" height="1" fill="#000000"/>
</svg>
