<svg xmlns="http://www.w3.org/2000/svg" viewBox="0 0 24 24" width="480" height="480" shape-rendering="crispEdges">
<title>#0061</title>
<rect x="12" y="1" width="2" height="1" fill="#000000"/>
<rect x="11" y="2" width="1" height="1" fill="#000000"/>
<rect x="12" y="2" width="1" height="1" fill="#9f6f32"/>
<rect x="13" y="2" width="1" height="1" fill="#000000"/>
<rect x="10" y="3" width="1" height="1" fill="#000000"/>
<rect x="11" y="3" width="2" height="1" fill="#9f6f32"/>
<rect x="13" y="3" width="1" height="1" fill="#000000"/>
<rect x="9" y="4" width="1" height="1" fill="#000000"/>
<rect x="10" y="4" width="1" height="1" fill="#805621"/>
<rect x="11" y="4" width="2" height="1" fill="#9f6f32"/>
<rect x="13" y="4" width="1" height="1" fill="#000000"/>
<rect x="8" y="5" width="1" height="1" fill="#000000"/>
<rect x="9" y="5" width="1" height="1" fill="#805621"/>
<rect x="10" y="5" width="3" height="1" fill="#9f6f32"/>
<rect x="13" y="5" width="2" height="1" fill="#000000"/>
<rect x="7" y="6" width="1" height="1" fill="#000000"/>
<rect x="8" y="6" width="3" height="1" fill="#dbb180"/>
<rect x="11" y="6" width="2" height="1" fill="#9f6f32"/>
<rect x="13" y="6" width="2" height="1" fill="#dbb180"/>
<rect x="15" y="6" width="1" height="1" fill="#000000"/>
<rect x="6" y="7" width="1" height="1" fill="#000000"/>
<rect x="7" y="7" width="2" height="1" fill="#dbb180"/>
<rect x="9" y="7" width="1" height="1" fill="#b39f81"/>
<rect x="10" y="7" width="2" height="1" fill="#dbb180"/>
<rect x="12" y="7" width="1" height="1" fill="#9f6f32"/>
<rect x="13" y="7" width="3" height="1" fill="#dbb180"/>
<rect x="16" y="7" width="1" height="1" fill="#000000"/>
<rect x="6" y="8" width="1" height="1" fill="#000000"/>
<rect x="7" y="8" width="1" height="1" fill="#dbb180"/>
<rect x="8" y="8" width="1" height="1" fill="#b39f81"/>
<rect x="9" y="8" width="7" height="1" fill="#dbb180"/>
<rect x="16" y="8" width="1" height="1" fill="#000000"/>
<rect x="6" y="9" width="1" height="1" fill="#000000"/>
<rect x="7" y="9" width="9" height="1" fill="#dbb180"/>
<rect x="16" y="9" width="1" height="1" fill="#000000"/>
<rect x="6" y="10" width="1" height="1" fill="#000000"/>
<rect x="7" y="10" width="9" height="1" fill="#dbb180"/>
<rect x="16" y="10" width="1" height="1" fill="#000000"/>
<rect x="5" y="11" width="13" height="1" fill="#000000"/>
<rect x="5" y="12" width="1" height="1" fill="#000000"/>
<rect x="6" y="12" width="2" height="1" fill="#dbb180"/>
<rect x="8" y="12" width="1" height="1" fill="#4f4f4f"/>
<rect x="9" y="12" width="2" height="1" fill="#000000"/>
<rect x="11" y="12" width="2" height="1" fill="#dbb180"/>
<rect x="13" y="12" width="1" height="1" fill="#4f4f4f"/>
<rect x="14" y="12" width="3" height="1" fill="#000000"/>
<rect x="5" y="13" width="1" height="1" fill="#000000"/>
<rect x="6" y="13" width="3" height="1" fill="#dbb180"/>
<rect x="9" y="13" width="2" height="1" fill="#000000"/>
<rect x="11" y="13" width="3" height="1" fill="#dbb180"/>
<rect x="14" y="13" width="3" height="1" fill="#000000"/>
<rect x="18" y="13" width="1" height="1" fill="#ffffff" fill-opacity="0.45"/>
<rect x="5" y="14" width="2" height="1" fill="#000000"/>
<rect x="7" y="14" width="9" height="1" fill="#dbb180"/>
<rect x="16" y="14" width="1" height="1" fill="#000000"/>
<rect x="18" y="14" width="1" height="1" fill="#ffffff" fill-opacity="0.45"/>
<rect x="6" y="15" width="1" height="1" fill="#000000"/>
<rect x="7" y="15" width="1" height="1" fill="#4d2c11"/>
<rect x="8" y="15" width="4" height="1" fill="#dbb180"/>
<rect x="12" y="15" width="2" height="1" fill="#000000"/>
<rect x="14" y="15" width="2" height="1" fill="#dbb180"/>
<rect x="16" y="15" width="1" height="1" fill="#000000"/>
<rect x="18" y="15" width="1" height="1" fill="#ffffff" fill-opacity="0.45"/>
<rect x="6" y="16" width="1" height="1" fill="#000000"/>
<rect x="7" y="16" width="2" height="1" fill="#4d2c11"/>
<rect x="9" y="16" width="6" height="1" fill="#dbb180"/>
<rect x="15" y="16" width="1" height="1" fill="#4d2c11"/>
<rect x="16" y="16" width="1" height="1" fill="#000000"/>
<rect x="18" y="16" width="1" height="1" fill="#ffffff" fill-opacity="0.45"/>
<rect x="6" y="17" width="1" height="1" fill="#000000"/>
<rect x="7" y="17" width="5" height="1" fill="#4d2c11"/>
<rect x="12" y="17" width="8" height="1" fill="#000000"/>
<rect x="6" y="18" width="1" height="1" fill="#000000"/>
<rect x="7" y="18" width="4" height="1" fill="#4d2c11"/>
<rect x="11" y="18" width="1" height="1" fill="#2a1a03"/>
<rect x="12" y="18" width="1" height="1" fill="#000000"/>
<rect x="13" y="18" width="5" height="1" fill="#e6e6e6"/>
<rect x="18" y="18" width="1" height="1" fill="#e25b26"/>
<rect x="19" y="18" width="1" height="1" fill="#000000"/>
<rect x="6" y="19" width="1" height="1" fill="#000000"/>
<rect x="7" y="19" width="1" height="1" fill="#dbb180"/>
<rect x="8" y="19" width="4" height="1" fill="#4d2c11"/>
<rect x="12" y="19" width="8" height="1" fill="#000000"/>
<rect x="6" y="20" width="1" height="1" fill="#000000"/>
<rect x="7" y="20" width="2" height="1" fill="#dbb180"/>
<rect x="9" y="20" width="6" height="1" fill="#4d2c11"/>
<rect x="15" y="20" width="1" height="1" fill="#000000"/>
<rect x="6" y="21" width="1" height="1" fill="#000000"/>
<rect x="7" y="21" width="3" height="1" fill="#dbb180"/>
<rect x="10" y="21" width="5" height="1" fill="#000000"/>
<rect x="6" y="22" width="1" height="1" fill="#000000"/>
<rect x="7" y="22" width="3" height="1" fill="#dbb180"/>
<rect x="10" y="22" width="1" height="1" fill="#000000"/>
<rect x="6" y="23" width="1" height="1" fill="#000000"/>
<rect x="7" y="23" width="3" height="1" fill="#dbb180"/>
<rect x="10" y="23" width="1" height="1" fill="#000000"/>
</svg>
