<svg xmlns="http://www.w3.org/2000/svg" viewBox="0 0 24 24" width="480" height="480" shape-rendering="crispEdges">
<title>#0066</title>
<rect x="8" y="3" width="7" height="1" fill="#000000"/>
<rect x="7" y="4" width="2" height="1" fill="#000000"/>
<rect x="9" y="4" width="1" height="1" fill="#2e2823"/>
<rect x="10" y="4" width="6" height="1" fill="#000000"/>
<rect x="6" y="5" width="2" height="1" fill="#000000"/>
<rect x="8" y="5" width="1" height="1" fill="#2e2823"/>
<rect x="9" y="5" width="8" height="1" fill="#000000"/>
<rect x="5" y="6" width="13" height="1" fill="#000000"/>
<rect x="5" y="7" width="13" height="1" fill="#000000"/>
<rect x="5" y="8" width="13" height="1" fill="#000000"/>
<rect x="5" y="9" width="5" height="1" fill="#000000"/>
<rect x="10" y="9" width="1" height="1" fill="#713f1d"/>
<rect x="11" y="9" width="7" height="1" fill="#000000"/>
<rect x="5" y="10" width="4" height="1" fill="#000000"/>
<rect x="9" y="10" width="2" height="1" fill="#713f1d"/>
<rect x="11" y="10" width="3" height="1" fill="#000000"/>
<rect x="14" y="10" width="2" height="1" fill="#713f1d"/>
<rect x="16" y="10" width="1" height="1" fill="#000000"/>
<rect x="5" y="11" width="2" height="1" fill="#000000"/>
<rect x="7" y="11" width="2" height="1" fill="#713f1d"/>
<rect x="9" y="11" width="2" height="1" fill="#532701"/>
<rect x="11" y="11" width="3" height="1" fill="#713f1d"/>
<rect x="14" y="11" width="2" height="1" fill="#532701"/>
<rect x="16" y="11" width="1" height="1" fill="#000000"/>
<rect x="5" y="12" width="1" height="1" fill="#000000"/>
<rect x="6" y="12" width="3" height="1" fill="#713f1d"/>
<rect x="9" y="12" width="1" height="1" fill="#000000"/>
<rect x="10" y="12" width="1" height="1" fill="#6c380e"/>
<rect x="11" y="12" width="3" height="1" fill="#713f1d"/>
<rect x="14" y="12" width="1" height="1" fill="#000000"/>
<rect x="15" y="12" width="1" height="1" fill="#6c380e"/>
<rect x="16" y="12" width="1" height="1" fill="#000000"/>
<rect x="5" y="13" width="1" height="1" fill="#000000"/>
<rect x="6" y="13" width="10" height="1" fill="#713f1d"/>
<rect x="16" y="13" width="1" height="1" fill="#000000"/>
<rect x="5" y="14" width="2" height="1" fill="#000000"/>
<rect x="7" y="14" width="9" height="1" fill="#713f1d"/>
<rect x="16" y="14" width="1" height="1" fill="#000000"/>
<rect x="6" y="15" width="1" height="1" fill="#000000"/>
<rect x="7" y="15" width="5" height="1" fill="#713f1d"/>
<rect x="12" y="15" width="2" height="1" fill="#000000"/>
<rect x="14" y="15" width="2" height="1" fill="#713f1d"/>
<rect x="16" y="15" width="1" height="1" fill="#000000"/>
<rect x="6" y="16" width="1" height="1" fill="#000000"/>
<rect x="7" y="16" width="9" height="1" fill="#713f1d"/>
<rect x="16" y="16" width="1" height="1" fill="#000000"/>
<rect x="6" y="17" width="1" height="1" fill="#000000"/>
<rect x="7" y="17" width="3" height="1" fill="#713f1d"/>
<rect x="10" y="17" width="4" height="1" fill="#58462f"/>
<rect x="14" y="17" width="7" height="1" fill="#000000"/>
<rect x="6" y="18" width="1" height="1" fill="#000000"/>
<rect x="7" y="18" width="4" height="1" fill="#713f1d"/>
<rect x="11" y="18" width="3" height="1" fill="#000000"/>
<rect x="14" y="18" width="5" height="1" fill="#5c5853"/>
<rect x="19" y="18" width="1" height="1" fill="#1c3df5"/>
<rect x="20" y="18" width="1" height="1" fill="#000000"/>
<rect x="6" y="19" width="1" height="1" fill="#000000"/>
<rect x="7" y="19" width="7" height="1" fill="#713f1d"/>
<rect x="14" y="19" width="7" height="1" fill="#000000"/>
<rect x="6" y="20" width="1" height="1" fill="#000000"/>
<rect x="7" y="20" width="8" height="1" fill="#713f1d"/>
<rect x="15" y="20" width="1" height="1" fill="#000000"/>
<rect x="6" y="21" width="1" height="1" fill="#000000"/>
<rect x="7" y="21" width="3" height="1" fill="#713f1d"/>
<rect x="10" y="21" width="5" height="1" fill="#000000"/>
<rect x="6" y="22" width="1" height="1" fill="#000000"/>
<rect x="7" y="22" width="3" height="1" fill="#713f1d"/>
<rect x="10" y="22" width="1" height="1" fill="#000000"/>
<rect x="6" y="23" width="1" height="1" fill="#000000"/>
<rect x="7" y="23" width="3" height="1" fill="#713f1d"/>
<rect x="10" y="23" width="1" height="1" fill="#000000"/>
</svg>
